<?xml version="1.0" standalone="no"?><!DOCTYPE svg PUBLIC "-//W3C//DTD SVG 1.1//EN" "http://www.w3.org/Graphics/SVG/1.1/DTD/svg11.dtd"><svg t="1622086435851" class="icon" viewBox="0 0 1024 1024" version="1.1" xmlns="http://www.w3.org/2000/svg" p-id="2493" width="40" height="40" xmlns:xlink="http://www.w3.org/1999/xlink"><defs><style type="text/css"></style></defs><path d="M102.4 659.968c-14.848 0-27.136 12.288-27.136 27.136l0 49.664c0 14.848 12.288 27.136 27.136 27.136 14.848 0 27.136-12.288 27.136-27.136l0-49.664C129.024 672.256 117.248 659.968 102.4 659.968L102.4 659.968zM1005.568 332.8l-487.936-217.6c-7.168-3.072-15.36-3.072-22.528 0.512l-474.624 228.352c-9.728 4.608-15.872 14.336-15.36 25.088 0 10.752 6.656 19.968 16.384 24.064l54.272 22.528c0 0.512 0 0.512 0 1.024l0 194.048c0 14.848 12.288 27.136 27.136 27.136 14.848 0 27.136-12.288 27.136-27.136l0-173.056 51.712 21.504 0 279.552c0 1.024 0 1.536 0 2.56 0 0.512 0 1.536 0 2.56 0 27.648 12.288 52.736 31.232 72.704 56.832 59.904 169.472 93.184 300.544 94.208 87.552 0 166.912-15.872 226.816-43.52 29.696-13.824 55.296-30.208 73.728-50.688 18.432-19.968 31.232-45.056 31.232-72.704 0-1.024 0-2.048 0-2.56 0-0.512 0-1.536 0-2.048l0-286.208 160.768-71.168c9.728-4.096 15.872-13.824 15.872-24.576C1021.44 346.624 1015.296 336.896 1005.568 332.8L1005.568 332.8zM773.632 780.288c-35.84 40.96-139.776 77.312-261.12 76.8-80.896 0-153.6-15.36-204.288-38.4-25.088-11.776-44.544-25.088-56.832-38.4-11.776-12.8-16.384-24.576-16.896-35.328 0-0.512 0.512-2.048 0.512-4.096 0-2.56 0-5.12-0.512-7.68l0-64.512c15.36 12.8 34.304 24.064 55.296 33.792 57.856 26.624 136.192 42.496 222.208 42.496 17.408 0 34.304-0.512 50.688-2.048 8.704-0.512 15.872-8.704 14.848-17.408-0.512-9.216-8.704-15.872-17.408-14.848-15.872 1.024-31.744 1.536-48.64 1.536-81.92 0-156.16-15.36-208.896-39.424-33.28-15.36-56.32-33.28-69.12-51.712l0-139.264 268.8 112.128c1.024 0.512 1.536 0.512 2.56 1.024 1.024 0 1.536 0.512 2.56 0.512 0.512 0 1.536 0 2.048 0 1.024 0 2.048 0.512 3.072 0.512 0 0 0 0 0 0 1.536 0 2.56 0 4.096-0.512 0.512 0 1.024 0 1.536 0 2.048-0.512 3.584-1.024 5.12-1.536l265.216-117.248 0 144.896c-5.12 7.68-11.776 14.848-20.48 22.528-21.504 17.92-53.248 34.304-92.672 46.08-8.704 2.56-13.312 11.776-10.752 20.48 2.048 7.168 8.704 11.264 15.36 11.264 1.536 0 3.072 0 4.608-0.512 42.496-12.8 77.824-30.72 103.936-52.224l0 65.024c-0.512 2.56-0.512 5.12-0.512 7.68 0 2.048 0.512 3.072 0.512 3.584C790.016 756.224 785.408 767.488 773.632 780.288L773.632 780.288zM806.912 410.624C806.912 410.624 806.912 410.624 806.912 410.624l-292.864 129.536-295.424-123.392c0 0 0 0 0 0l-120.832-50.688 409.088-196.608 420.864 187.392L806.912 410.624 806.912 410.624z" p-id="2494" fill="#ffffff"></path></svg>