<?xml version="1.0" standalone="no"?><!DOCTYPE svg PUBLIC "-//W3C//DTD SVG 1.1//EN" "http://www.w3.org/Graphics/SVG/1.1/DTD/svg11.dtd"><svg t="1622086454559" class="icon" viewBox="0 0 1084 1024" version="1.1" xmlns="http://www.w3.org/2000/svg" p-id="3421" xmlns:xlink="http://www.w3.org/1999/xlink" width="42.34375" height="40"><defs><style type="text/css"></style></defs><path d="M1078.836466 993.786572l-116.005088-95.706007a268.809046 268.809046 0 0 0 38.752792-204.438162c-20.534276-98.600707-104.42629-166.44523-197.617527-183.994346V24.424028A24.297385 24.297385 0 0 0 780.067279 0.180919H162.826855C73.742473 0.180919 4.631519 58.074912 0 151.609894V779.39788a26.974982 26.974982 0 0 0 1.139788 7.417668 151.971731 151.971731 0 0 0 146.924099 137.498233h443.884099c2.406219 2.713781 4.649611 5.246643 7.128198 7.779505 76.582898 78.15689 197.36424 85.755477 289.343321 34.374559a221.118869 221.118869 0 0 0 51.616113-40.344877l113.345583 93.354064c17.820495 14.654417 43.420495-10.855124 25.328622-25.69046zM196.87576 48.848057h559.346431v457.543462a246.04947 246.04947 0 0 0-194.903746 115.064311H149.746431a139.813993 139.813993 0 0 0-101.839152 39.983039V154.323675c0-0.542756-0.180919-1.085512-0.180919-1.628269l0.180919-1.085512c4.468693-91.363958 79.133852-102.761837 149.077032-102.761837z m-47.03887 826.798586h-1.628268c-130.261484-6.874912-129.284523-212.398587 1.573993-205.523675a6.060777 6.060777 0 0 0 1.809187 0h387.310813a265.769611 265.769611 0 0 0-13.514629 78.337809H148.172438a24.460212 24.460212 0 0 0 0 48.848057h380.978657a251.060919 251.060919 0 0 0 27.825301 78.15689H149.746431v0.180919z m725.194629 41.973145a193.438304 193.438304 0 0 1-232.788127-11.578799c-73.471095-59.522261-88.125512-164.816961-47.14742-248.039576l0.180918-0.361837c7.490035-9.045936 12.917597-21.167491 20.516184-30.937103a195.211307 195.211307 0 0 1 164.310389-72.005653c181.316749 17.187279 243.5347 255.638163 94.928056 362.922968z m-634.30106-546.012721a17.929046 17.929046 0 0 1 35.858092 0v136.231802a17.929046 17.929046 0 0 1-35.858092 0v-136.231802z m97.967492-58.617668a17.929046 17.929046 0 0 1 35.858091 0v194.84947a17.929046 17.929046 0 0 1-35.858091 0V312.989399z m98.021766 52.466431a17.892862 17.892862 0 0 1 35.785725 0v142.383039a17.892862 17.892862 0 0 1-35.785725 0V365.45583z m101.513499-52.466431a17.929046 17.929046 0 0 1 35.858091 0v194.84947a17.929046 17.929046 0 0 1-35.858091 0V312.989399z m-266.782757-22.976678a18.091873 18.091873 0 0 1-25.328622-25.871378l93.263605-92.44947a17.929046 17.929046 0 0 1 25.328622 0l106.289752 103.485512h-25.328622l97.9494-103.485512a18.091873 18.091873 0 0 1 25.328622 25.690459l-97.967492 103.666431a17.512933 17.512933 0 0 1-25.328622 0l-106.289752-103.485512h25.328622l-93.191237 92.630389v-0.180919z" p-id="3422" fill="#ffffff"></path></svg>